<svg width="539" height="504" viewBox="0 0 539 504" fill="none" xmlns="http://www.w3.org/2000/svg">
<g clip-path="url(#clip0_22_2)">
<path d="M410.723 119.769H407.957V43.9072C407.957 32.2623 403.337 21.0943 395.112 12.8601C386.888 4.62593 375.733 0 364.102 0H203.571C191.939 0 180.785 4.62593 172.56 12.8601C164.336 21.0943 159.715 32.2623 159.715 43.9072V460.093C159.715 471.738 164.336 482.906 172.56 491.14C180.785 499.374 191.939 504 203.571 504H364.105C375.736 504 386.891 499.374 395.115 491.14C403.34 482.906 407.96 471.738 407.96 460.093V173.769H410.723V119.769Z" fill="#3F3D56"/>
<path d="M399.019 40.9692V463.033C399.017 471.862 395.514 480.329 389.279 486.572C383.044 492.816 374.588 496.325 365.77 496.329H201.937C193.114 496.33 184.653 492.822 178.414 486.577C172.175 480.332 168.669 471.862 168.667 463.029V40.9692C168.67 32.1372 172.176 23.6679 178.415 17.4241C184.654 11.1802 193.115 7.67312 201.937 7.67411H221.81C220.834 10.0767 220.463 12.6825 220.729 15.2624C220.994 17.8423 221.889 20.3174 223.334 22.4701C224.779 24.6229 226.73 26.3873 229.015 27.6083C231.301 28.8293 233.851 29.4696 236.441 29.4728H329.844C332.434 29.4693 334.984 28.8287 337.27 27.6073C339.555 26.3859 341.506 24.6211 342.951 22.4681C344.395 20.3151 345.29 17.8397 345.555 15.2596C345.82 12.6795 345.448 10.0737 344.472 7.67114H365.76C374.578 7.67271 383.035 11.1802 389.271 17.4224C395.508 23.6647 399.013 32.1308 399.016 40.9595L399.019 40.9692Z" fill="#E6E6E6"/>
<path d="M381.563 474.297H186.123C184.455 474.295 182.855 473.631 181.676 472.45C180.496 471.269 179.832 469.668 179.831 467.997V56.6448C179.832 54.9746 180.496 53.3732 181.676 52.1921C182.855 51.0111 184.455 50.3467 186.123 50.3448H381.563C383.231 50.3467 384.83 51.0111 386.01 52.1921C387.19 53.3732 387.853 54.9746 387.855 56.6448V467.997C387.853 469.668 387.19 471.269 386.01 472.45C384.83 473.631 383.231 474.295 381.563 474.297Z" fill="white"/>
<path d="M283.103 189.227C312.841 189.227 336.949 165.091 336.949 135.317C336.949 105.543 312.841 81.4067 283.103 81.4067C253.364 81.4067 229.256 105.543 229.256 135.317C229.256 165.091 253.364 189.227 283.103 189.227Z" fill="#E6E6E6"/>
<path d="M282.362 181.929C308.075 181.929 328.919 161.06 328.919 135.317C328.919 109.574 308.075 88.7051 282.362 88.7051C256.65 88.7051 235.805 109.574 235.805 135.317C235.805 161.06 256.65 181.929 282.362 181.929Z" fill="white"/>
<path d="M283.399 108.879C278.149 108.879 273.017 110.438 268.651 113.358C264.286 116.278 260.884 120.429 258.875 125.285C256.866 130.141 256.34 135.484 257.364 140.639C258.389 145.795 260.917 150.53 264.629 154.247C268.341 157.963 273.071 160.494 278.22 161.52C283.369 162.545 288.706 162.019 293.557 160.007C298.407 157.996 302.553 154.59 305.469 150.219C308.386 145.849 309.943 140.711 309.943 135.455C309.943 128.406 307.146 121.647 302.168 116.663C297.19 111.679 290.439 108.879 283.399 108.879ZM283.399 116.852C284.974 116.852 286.513 117.32 287.823 118.196C289.132 119.072 290.153 120.317 290.756 121.774C291.359 123.231 291.516 124.834 291.209 126.38C290.902 127.927 290.143 129.347 289.03 130.462C287.916 131.577 286.497 132.337 284.952 132.644C283.408 132.952 281.806 132.794 280.351 132.191C278.896 131.587 277.652 130.565 276.777 129.254C275.902 127.943 275.435 126.402 275.435 124.825C275.435 123.778 275.641 122.741 276.041 121.774C276.442 120.806 277.028 119.927 277.768 119.187C278.507 118.447 279.385 117.86 280.351 117.459C281.317 117.058 282.353 116.852 283.399 116.852ZM283.399 155.233C280.253 155.219 277.158 154.436 274.383 152.953C271.607 151.47 269.235 149.332 267.472 146.724C267.599 141.409 278.089 138.482 283.399 138.482C288.708 138.482 299.197 141.409 299.326 146.724C297.561 149.33 295.188 151.468 292.413 152.951C289.638 154.434 286.544 155.218 283.399 155.235V155.233Z" fill="#a759d1"/>
<path d="M327.541 207.344H234.383V214.354H327.541V207.344Z" fill="#E6E6E6"/>
<path d="M339.159 225.559H221.919V232.569H339.159V225.559Z" fill="#E6E6E6"/>
<path d="M366.421 277.883H201.264V443.235H366.421V277.883Z" fill="#E6E6E6"/>
<path d="M362.059 281.382H203.89V439.738H362.059V281.382Z" fill="white"/>
<path d="M298.033 296.668H236.464V301.301H298.033V296.668Z" fill="#E6E6E6"/>
<path d="M331.54 310.27H236.464V314.903H331.54V310.27Z" fill="#a759d1"/>
<path d="M314.937 323.223H237.452V327.857H314.937V323.223Z" fill="#E6E6E6"/>
<path d="M281.698 337.436H236.464V342.069H281.698V337.436Z" fill="#E6E6E6"/>
<path d="M304.734 351.319H236.464V355.952H304.734V351.319Z" fill="#a759d1"/>
<path d="M298.033 365.289H236.464V369.922H298.033V365.289Z" fill="#E6E6E6"/>
<path d="M331.54 378.89H236.464V383.523H331.54V378.89Z" fill="#a759d1"/>
<path d="M314.937 391.844H237.452V396.477H314.937V391.844Z" fill="#E6E6E6"/>
<path d="M281.698 406.057H236.464V410.69H281.698V406.057Z" fill="#E6E6E6"/>
<path d="M304.734 419.94H236.464V424.573H304.734V419.94Z" fill="#E6E6E6"/>
<path d="M512.857 359.489C512.417 360.261 511.829 360.938 511.127 361.482C510.425 362.026 509.623 362.426 508.767 362.659C507.91 362.893 507.016 362.955 506.136 362.843C505.255 362.731 504.405 362.446 503.635 362.005C502.864 361.564 502.188 360.975 501.645 360.272C501.102 359.57 500.702 358.767 500.468 357.909C500.235 357.052 500.173 356.157 500.285 355.275C500.397 354.394 500.682 353.543 501.122 352.772C501.137 352.745 501.153 352.719 501.168 352.693C501.357 352.376 501.57 352.073 501.805 351.788L496.119 311.217L495.949 310.001L494.794 301.722L494.624 300.529L495.253 300.558L506.269 301.062L509.222 301.196L509.593 308.748L511.688 351.21C512.782 352.259 513.493 353.645 513.705 355.147C513.917 356.649 513.619 358.178 512.857 359.489Z" fill="#FFB8B8"/>
<path d="M495.981 310.369L509.969 309.084C510.695 309.015 511.364 308.662 511.83 308.102C512.297 307.541 512.523 306.819 512.46 306.092L509.869 276.97C509.745 275.581 509.349 274.23 508.704 272.994C508.058 271.759 507.176 270.662 506.108 269.768C505.039 268.874 503.805 268.199 502.476 267.782C501.147 267.365 499.749 267.214 498.362 267.338C496.975 267.462 495.626 267.858 494.391 268.504C493.157 269.15 492.062 270.034 491.169 271.103C490.275 272.173 489.601 273.408 489.185 274.739C488.768 276.07 488.618 277.469 488.742 278.858C488.76 279.059 488.783 279.259 488.812 279.458L493.007 308.023C493.103 308.677 493.431 309.275 493.931 309.708C494.431 310.141 495.069 310.379 495.73 310.38C495.814 310.382 495.898 310.378 495.981 310.369Z" fill="#a759d1"/>
<path d="M506.584 286.842C507.999 282.829 508.064 278.464 506.771 274.411C505.477 270.358 502.895 266.84 499.419 264.393C494.144 260.78 486.926 259.483 479.153 268.747C463.607 287.277 459.535 307.659 459.535 307.659L491.368 312.847C491.368 312.847 502.193 299.599 506.584 286.842Z" fill="#a759d1"/>
<path d="M455.098 495.561H446.022L441.705 460.512H455.1L455.098 495.561Z" fill="#FFB8B8"/>
<path d="M428.521 503.998H457.045V492.964H439.542C436.619 492.964 433.815 494.126 431.749 496.196C429.682 498.265 428.521 501.071 428.521 503.998Z" fill="#2F2E41"/>
<path d="M529.716 487.635L521.099 490.488L506.012 458.567L518.73 454.357L529.716 487.635Z" fill="#FFB8B8"/>
<path d="M507.124 503.998L534.208 495.035L530.749 484.559L514.13 490.058C512.756 490.513 511.484 491.234 510.389 492.181C509.293 493.128 508.394 494.281 507.744 495.575C507.093 496.87 506.704 498.28 506.597 499.725C506.491 501.17 506.67 502.622 507.124 503.998Z" fill="#2F2E41"/>
<path d="M486.601 255.203C496.643 255.203 504.784 247.053 504.784 236.999C504.784 226.945 496.643 218.795 486.601 218.795C476.559 218.795 468.418 226.945 468.418 236.999C468.418 247.053 476.559 255.203 486.601 255.203Z" fill="#FFB8B8"/>
<path d="M470.681 485.805L479.109 430.109C479.199 429.515 479.493 428.97 479.939 428.568C480.386 428.166 480.958 427.932 481.558 427.906C482.158 427.88 482.748 428.063 483.228 428.424C483.708 428.786 484.048 429.303 484.189 429.887L497.024 482.964C497.227 483.777 497.725 484.485 498.422 484.949C499.119 485.413 499.964 485.6 500.791 485.473L536.196 479.776C536.666 479.701 537.113 479.525 537.51 479.262C537.906 478.999 538.241 478.654 538.493 478.25C538.745 477.847 538.908 477.394 538.971 476.922C539.033 476.45 538.994 475.97 538.856 475.514L492.69 323.129C492.559 322.695 492.543 322.236 492.645 321.795L494.182 315.124C494.351 314.401 494.273 313.642 493.96 312.968C493.648 312.295 493.12 311.745 492.459 311.408C486.172 308.196 470.25 301.52 458.234 308.833C457.844 309.071 457.507 309.386 457.242 309.759C456.977 310.132 456.791 310.555 456.695 311.002L420.631 480.709C420.532 481.171 420.533 481.648 420.633 482.109C420.733 482.57 420.929 483.005 421.209 483.384C421.489 483.764 421.846 484.08 422.256 484.311C422.667 484.542 423.122 484.683 423.592 484.726L467.09 488.626C467.188 488.635 467.287 488.639 467.386 488.639C468.182 488.638 468.952 488.351 469.556 487.831C470.16 487.311 470.558 486.592 470.679 485.804L470.681 485.805Z" fill="#2F2E41"/>
<path d="M498.658 224.137C497.287 223.312 496.071 222.253 495.063 221.01C494.566 220.381 494.239 219.635 494.113 218.843C493.987 218.051 494.067 217.24 494.345 216.488C495.264 214.459 497.993 213.82 500.109 214.509C502.225 215.197 503.859 216.86 505.405 218.461C506.766 219.87 508.167 221.346 508.81 223.198C509.453 225.05 509.124 227.399 507.517 228.524C505.941 229.626 503.674 229.175 502.158 227.991C500.641 226.806 499.703 225.048 498.808 223.344L498.658 224.137Z" fill="#2F2E41"/>
<path d="M504.816 218.951C504.917 213.822 510.756 210.143 515.8 211.053C520.844 211.962 524.72 216.267 526.66 221.015C530.76 231.047 527.683 242.493 523.732 252.589C519.782 262.684 514.893 272.926 515.47 283.75C515.86 289.6 517.821 295.237 521.146 300.064C524.47 304.891 529.035 308.729 534.359 311.174C528.667 313.756 521.864 311.088 517.081 307.061C506.459 298.119 502.359 282.198 507.338 269.229C509.793 262.832 514.121 257.359 517.5 251.399C520.878 245.439 523.358 238.415 521.613 231.788C519.868 225.162 512.444 219.797 506.098 222.361L504.816 218.951Z" fill="#2F2E41"/>
<path d="M485.511 245.077C487.096 242.395 488.694 238.875 485.798 236.53C485.168 236.044 484.447 235.688 483.678 235.485C482.909 235.281 482.107 235.234 481.319 235.345C478.053 235.739 474.496 235.901 471.334 234.713C470.148 234.305 469.056 233.662 468.123 232.822C467.191 231.983 466.436 230.965 465.904 229.828C464.275 225.956 466.315 221.251 469.727 218.804C471.815 217.361 474.281 216.567 476.818 216.522C479.354 216.477 481.847 217.183 483.984 218.551C488.404 216.597 493.766 217.466 497.781 220.156C501.796 222.847 504.544 227.155 506.036 231.756C507.411 235.716 507.648 239.982 506.719 244.07C505.972 246.914 504.552 249.536 502.578 251.714C500.605 253.891 498.136 255.561 495.381 256.581C494.308 257.004 493.143 257.139 492.002 256.969C490.861 256.8 489.784 256.334 488.88 255.617C488.88 255.617 486.374 253.427 485.59 250.789C484.986 248.761 484.664 246.51 485.511 245.077Z" fill="#2F2E41"/>
<path d="M431.571 261.321C431.662 261.72 431.721 262.127 431.748 262.536L463.549 280.904L471.278 276.449L479.519 287.249L466.6 296.468C465.557 297.213 464.3 297.599 463.018 297.567C461.737 297.536 460.5 297.09 459.493 296.294L426.698 270.393C425.218 270.942 423.605 271.027 422.076 270.636C420.546 270.245 419.172 269.397 418.135 268.205C417.099 267.013 416.449 265.533 416.273 263.963C416.097 262.392 416.403 260.805 417.15 259.413C417.898 258.02 419.05 256.889 420.456 256.168C421.861 255.448 423.452 255.173 425.017 255.38C426.582 255.588 428.047 256.267 429.217 257.328C430.387 258.389 431.206 259.782 431.566 261.321H431.571Z" fill="#FFB8B8"/>
<path d="M464.613 281.774L474.891 295.111C475.183 295.49 475.554 295.801 475.977 296.024C476.401 296.247 476.867 296.376 477.345 296.402C477.823 296.428 478.3 296.351 478.745 296.176C479.191 296.001 479.593 295.732 479.925 295.387L491.56 283.291C493.529 281.824 494.835 279.634 495.191 277.203C495.548 274.771 494.924 272.298 493.459 270.327C491.994 268.356 489.807 267.048 487.378 266.692C484.95 266.335 482.48 266.959 480.511 268.426C480.41 268.501 480.311 268.578 480.214 268.657L465.621 276.826C465.203 277.06 464.841 277.382 464.558 277.769C464.276 278.156 464.08 278.599 463.984 279.068C463.888 279.538 463.894 280.023 464.003 280.49C464.111 280.957 464.318 281.395 464.61 281.774L464.613 281.774Z" fill="#a759d1"/>
<path d="M91.5763 313.559C91.2131 313.726 90.8638 313.921 90.5317 314.143L57.3277 299.954L56.1432 291.197L42.8755 291.116L43.6595 311.202L87.4854 322.807C87.5777 323.112 87.6884 323.411 87.817 323.702C88.4507 325.056 89.4697 326.192 90.7462 326.968C92.0226 327.744 93.4996 328.124 94.9915 328.063C96.4835 328.001 97.9239 327.499 99.1319 326.62C100.34 325.741 101.262 324.525 101.781 323.123C102.301 321.722 102.395 320.198 102.053 318.743C101.71 317.287 100.946 315.966 99.8554 314.945C98.7652 313.923 97.3978 313.247 95.925 313.001C94.4521 312.755 92.9394 312.95 91.577 313.562L91.5763 313.559Z" fill="#A0616A"/>
<path d="M38.0503 495.562H47.1264L51.4438 460.513H38.0488L38.0503 495.562Z" fill="#A0616A"/>
<path d="M53.6092 492.965H36.1055V503.996H64.6301C64.6301 501.069 63.4689 498.263 61.4021 496.193C59.3353 494.124 56.5321 492.962 53.6092 492.962H53.6091L53.6092 492.965Z" fill="#2F2E41"/>
<path d="M2.75269 492.994L11.7844 493.884L19.5139 459.428L6.18324 458.117L2.75269 492.994Z" fill="#A0616A"/>
<path d="M18.4962 491.939L1.08004 490.222L0 501.2L28.3812 503.999C28.523 502.557 28.3798 501.102 27.9598 499.715C27.5397 498.329 26.8511 497.039 25.9331 495.919C25.0151 494.799 23.8858 493.871 22.6097 493.189C21.3335 492.506 19.9355 492.081 18.4955 491.939L18.4962 491.939Z" fill="#2F2E41"/>
<path d="M35.5236 254.023C45.5656 254.023 53.7062 245.873 53.7062 235.819C53.7062 225.765 45.5656 217.615 35.5236 217.615C25.4817 217.615 17.3411 225.765 17.3411 235.819C17.3411 245.873 25.4817 254.023 35.5236 254.023Z" fill="#A0616A"/>
<path d="M49.1548 488.474C49.9351 488.476 50.6909 488.202 51.2889 487.7C51.8869 487.198 52.2887 486.501 52.4232 485.731C57.1175 459.628 72.4765 374.259 72.8437 371.892C72.852 371.838 72.8559 371.783 72.8555 371.728V365.362C72.8562 365.131 72.7839 364.904 72.649 364.716L70.6206 361.871C70.5242 361.735 70.3977 361.622 70.2509 361.541C70.1041 361.461 69.9408 361.415 69.7737 361.408C58.2087 360.866 20.3334 359.274 18.5034 361.563C16.6659 363.861 17.3189 370.833 17.4669 372.206L17.4595 372.349L0.443717 481.302C0.310426 482.171 0.524277 483.058 1.03899 483.77C1.5537 484.482 2.32786 484.963 3.19393 485.108L13.8217 486.861C14.6132 486.988 15.4241 486.827 16.1068 486.406C16.7895 485.985 17.2987 485.333 17.5417 484.569C20.8287 474.053 31.851 438.676 35.6709 424.988C35.6954 424.901 35.7502 424.827 35.8252 424.778C35.9002 424.729 35.9904 424.709 36.079 424.722C36.1676 424.735 36.2486 424.779 36.3071 424.847C36.3657 424.914 36.3976 425.001 36.3972 425.091C36.2062 438.14 35.745 471.431 35.5829 482.93L35.5658 484.168C35.5588 485.007 35.8662 485.817 36.4272 486.44C36.9882 487.062 37.7621 487.451 38.5959 487.53L48.8439 488.46C48.9472 488.47 49.051 488.474 49.1548 488.474Z" fill="#2F2E41"/>
<path d="M47.0635 261.181C50.2364 263.07 52.1353 266.54 53.225 270.075C55.2421 276.613 56.4563 283.373 56.8406 290.205L57.9925 310.661L72.247 364.893C59.8921 375.359 52.766 372.98 36.1344 364.42C19.5028 355.859 17.6032 367.274 17.6032 367.274L14.2777 321.13L9.52649 270.706C10.5932 269.42 11.8005 268.258 13.1258 267.242C17.5175 263.822 22.6271 261.445 28.0697 260.29C33.5122 259.134 39.1457 259.23 44.5457 260.571L47.0635 261.181Z" fill="#E6E6E6"/>
<path d="M51.6933 324.512C51.3101 324.655 50.9388 324.829 50.5828 325.031L17.7505 308.577L17.2056 299.663L3.66253 298.729L2.93704 319.046L46.8118 333.573C47.1697 335.113 47.9873 336.506 49.1558 337.569C50.3243 338.632 51.7883 339.313 53.353 339.522C54.9177 339.732 56.5089 339.459 57.9151 338.741C59.3212 338.022 60.4756 336.892 61.2246 335.501C61.9736 334.11 62.2817 332.523 62.108 330.952C61.9343 329.382 61.2869 327.901 60.2521 326.707C59.2173 325.514 57.844 324.664 56.315 324.271C54.7859 323.878 53.1736 323.96 51.6926 324.507L51.6933 324.512Z" fill="#A0616A"/>
<path d="M9.76336 270.933C1.68593 273.787 0.262329 304.711 0.262329 304.711C9.76558 299.479 21.1692 308.041 21.1692 308.041C21.1692 308.041 23.5448 299.954 26.3957 289.488C27.2566 286.544 27.3595 283.43 26.695 280.436C26.0305 277.442 24.62 274.664 22.595 272.363C22.595 272.363 17.8416 268.077 9.76336 270.933Z" fill="#E6E6E6"/>
<path d="M19.2237 240.634C21.489 238.819 24.5797 242.116 24.5797 242.116L26.392 225.787C26.392 225.787 37.7186 227.146 44.9691 225.334C52.2196 223.521 53.3515 231.912 53.3515 231.912C53.7253 228.522 53.8011 225.107 53.5781 221.705C53.125 217.622 47.2352 213.539 36.8139 210.818C26.3927 208.096 20.956 219.89 20.956 219.89C13.7025 223.518 16.9554 242.448 19.2237 240.634Z" fill="#2F2E41"/>
</g>
<defs>
<clipPath id="clip0_22_2">
<rect width="539" height="504" fill="white"/>
</clipPath>
</defs>
</svg>
